<svg width="current" height="current" viewBox="0 0 71 100" fill="none" xmlns="http://www.w3.org/2000/svg">
<g clip-path="url(#clip0)">
<path d="M70.7938 19.6028L64.3559 91.7247L35.4168 99.7474L6.55752 91.7357L0.126221 19.6028H70.7938Z" fill="#E44D26"/>
<path d="M35.46 93.615L58.8442 87.1321L64.3456 25.5005H35.46V93.615Z" fill="#F16529"/>
<path d="M22.9448 43.1945H35.46V34.3477H13.2764L13.488 36.7211L15.6625 61.1006H35.46V52.2538H23.7534L22.9448 43.1945Z" fill="#EBEBEB"/>
<path d="M24.9387 65.5241H16.0578L17.2971 79.415L35.4193 84.4454L35.46 84.4344V75.2299L35.4212 75.2402L25.5686 72.5798L24.9387 65.5241Z" fill="#EBEBEB"/>
<path d="M6.70099 0H11.1968V4.44183H15.3096V0H19.8057V13.451H15.3099V8.94681H11.1971V13.451H6.70127V0H6.70099Z" fill="black"/>
<path d="M25.7176 4.46067H21.7603V0H34.1741V4.46067H30.2143V13.451H25.7184V4.46067H25.7181H25.7176Z" fill="black"/>
<path d="M36.1442 0H40.832L43.7157 4.72632L46.5966 0H51.2863V13.451H46.8088V6.78393L43.7157 11.5665H43.6381L40.5431 6.78393V13.451H36.1442V0Z" fill="black"/>
<path d="M53.5237 0H58.0209V9.00499H64.3434V13.451H53.5234V0H53.5237Z" fill="black"/>
<path d="M35.4295 61.1005H46.3234L45.2963 72.5742L35.4293 75.2374V84.4413L53.5658 79.4149L53.6988 77.9202L55.778 54.6293L55.9938 52.2537H35.4295V61.1005Z" fill="white"/>
<path d="M35.4295 43.1729V43.1945H56.7988L56.976 41.2061L57.3794 36.7211L57.5907 34.3477H35.4295V43.1731V43.1729Z" fill="white"/>
</g>
<defs>
<clipPath id="clip0">
<rect width="70.92" height="100" fill="white"/>
</clipPath>
</defs>
</svg>
