<svg width="current" height="current" viewBox="0 0 71 100" fill="none" xmlns="http://www.w3.org/2000/svg">
<g clip-path="url(#clip0)">
<path d="M35.4168 99.7474L6.55752 91.7357L0.126221 19.6028H70.7938L64.3559 91.7247L35.4168 99.7474Z" fill="#264DE4"/>
<path d="M58.8442 87.1321L64.3456 25.5005H35.46V93.615L58.8442 87.1321Z" fill="#2965F1"/>
<path d="M14.8698 52.2537L15.6625 61.1005H35.4601V52.2537H14.8698Z" fill="#EBEBEB"/>
<path d="M13.2764 34.3477L14.0805 43.1945H35.46V34.3477H13.2764Z" fill="#EBEBEB"/>
<path d="M35.46 75.2299L35.4212 75.2402L25.5685 72.5798L24.9386 65.5241H16.0577L17.2971 79.415L35.4192 84.4454L35.46 84.4344V75.2299Z" fill="#EBEBEB"/>
<path d="M16.7574 0H27.4721V4.48089H21.2383V8.96177H27.4727V13.4424H16.7574V0Z" fill="black"/>
<path d="M29.6154 0H40.3303V3.8964H34.0963V4.67562H40.3303V13.6374H29.6157V9.54571H35.8497V8.76648H29.6151V0H29.6154Z" fill="black"/>
<path d="M42.4736 0H53.1886V3.8964H46.9545V4.67562H53.1886V13.6374H42.4736V9.54571H48.7077V8.76648H42.4739V0H42.4736Z" fill="black"/>
<path d="M55.9937 52.2538L57.5907 34.3477H35.4295V43.1945H47.8954L47.0904 52.2538H35.4295V61.1006H46.3234L45.2962 72.5743L35.4292 75.2374V84.4413L53.5658 79.415L53.6987 77.9202L55.778 54.6294L55.9937 52.2538Z" fill="white"/>
</g>
<defs>
<clipPath id="clip0">
<rect width="70.92" height="100" fill="white"/>
</clipPath>
</defs>
</svg>
